<?xml version="1.0" standalone="no"?>
<!DOCTYPE svg PUBLIC "-//W3C//DTD SVG 20010904//EN"
 "http://www.w3.org/TR/2001/REC-SVG-20010904/DTD/svg10.dtd">
<svg version="1.0" xmlns="http://www.w3.org/2000/svg"
 width="1024.000000pt" height="1024.000000pt" viewBox="0 0 1024.000000 1024.000000"
 preserveAspectRatio="xMidYMid meet">
<metadata>
Created by potrace 1.11, written by Peter Selinger 2001-2013
</metadata>
<g transform="translate(0.000000,1024.000000) scale(0.100000,-0.100000)"
fill="#000000" stroke="none">
<path d="M1220 9189 c-83 -13 -105 -18 -170 -40 -272 -89 -486 -320 -562 -609
l-23 -85 0 -3335 0 -3335 23 -85 c43 -164 125 -304 243 -415 126 -119 249
-184 429 -226 81 -19 7779 -22 7890 -3 199 34 362 122 497 268 100 109 183
265 209 391 2 11 8 43 13 70 14 72 14 6613 0 6680 -6 28 -12 57 -13 65 -5 32
-40 128 -69 185 -44 89 -83 142 -161 221 -127 127 -251 196 -436 241 -59 15
-431 16 -3945 18 -2134 0 -3900 -2 -3925 -6z m1688 -1603 c23 -3 46 -7 50 -10
5 -3 19 -7 33 -10 13 -2 38 -10 54 -17 17 -7 32 -13 35 -14 56 -19 124 -68
208 -149 161 -156 230 -316 227 -526 -4 -231 -87 -410 -260 -561 -17 -14 -46
-34 -65 -45 -19 -10 -37 -22 -40 -25 -13 -14 -142 -60 -202 -73 -60 -12 -258
-15 -298 -4 -8 3 -31 8 -50 12 -92 19 -227 92 -305 164 -78 72 -143 170 -196
297 -29 70 -42 246 -27 361 30 220 180 428 384 529 50 25 104 48 120 51 16 2
36 7 44 11 41 16 180 20 288 9z m4969 -217 c79 -15 134 -71 149 -150 12 -66 7
-685 -6 -726 -19 -58 -45 -89 -97 -113 l-48 -23 -1870 0 c-1370 0 -1881 3
-1911 12 -56 15 -88 42 -115 99 -23 46 -23 53 -23 387 -1 352 4 404 42 451 27
32 66 54 113 63 60 10 3708 10 3766 0z m-4908 -1544 c150 -39 258 -111 388
-259 52 -60 112 -167 129 -231 35 -133 38 -293 9 -404 -35 -135 -91 -230 -200
-336 -134 -131 -287 -194 -484 -199 -82 -3 -113 0 -206 18 -19 4 -43 11 -75
24 -8 3 -17 6 -20 7 -114 39 -260 163 -342 291 -34 53 -72 144 -87 209 -29
124 -17 330 26 438 38 95 127 223 200 287 107 93 260 161 393 173 73 6 211 -3
269 -18z m4930 -208 c53 -16 106 -66 116 -110 4 -17 9 -39 12 -47 7 -27 5
-656 -2 -691 -13 -61 -41 -103 -86 -129 l-44 -25 -1885 -2 c-1477 -2 -1893 0
-1920 10 -59 20 -86 43 -110 94 -23 47 -23 56 -25 373 0 179 3 348 8 375 15
89 55 133 142 155 17 5 867 8 1890 9 1496 0 1869 -2 1904 -12z m-4939 -1536
c80 -21 154 -54 213 -93 65 -44 213 -189 222 -218 4 -11 10 -20 13 -20 8 0 27
-36 55 -100 29 -66 49 -165 51 -255 6 -223 -62 -395 -217 -547 -136 -134 -304
-200 -502 -199 -98 1 -114 2 -183 15 -153 30 -349 170 -439 316 -22 36 -63
117 -67 135 -2 6 -6 17 -9 25 -37 98 -41 308 -8 440 24 97 104 230 187 313 46
45 174 137 191 137 4 0 20 7 35 14 15 8 60 22 100 31 40 9 78 18 83 20 27 7
236 -3 275 -14z m4938 -210 c23 -7 57 -27 75 -45 55 -55 59 -85 59 -446 0
-179 -3 -340 -6 -359 -15 -79 -70 -135 -149 -150 -26 -4 -885 -8 -1909 -7
l-1863 1 -45 23 c-100 50 -107 84 -105 507 2 287 4 335 19 371 29 70 92 110
186 116 19 2 859 2 1865 2 1365 -1 1841 -4 1873 -13z"/>
</g>
</svg>
